<mxfile host="app.diagrams.net" modified="2023-02-24T06:39:43.509Z" agent="5.0 (Windows)" etag="uWNG-bmeLqPMAB7SQGmt" version="20.8.23" type="github">
  <diagram id="R2lEEEUBdFMjLlhIrx00" name="Page-1">
    <mxGraphModel dx="1999" dy="662" grid="1" gridSize="10" guides="1" tooltips="1" connect="1" arrows="1" fold="1" page="1" pageScale="1" pageWidth="850" pageHeight="1100" math="0" shadow="0" extFonts="Permanent Marker^https://fonts.googleapis.com/css?family=Permanent+Marker">
      <root>
        <mxCell id="0" />
        <mxCell id="1" parent="0" />
        <mxCell id="4P1G4LsWBmaIqUn7CIRd-1" value="&lt;h4 style=&quot;font-size: 19px;&quot;&gt;&lt;font style=&quot;font-size: 19px;&quot;&gt;&lt;font style=&quot;font-size: 19px;&quot;&gt;&lt;font style=&quot;font-size: 19px;&quot;&gt;&lt;font style=&quot;font-size: 19px;&quot;&gt;&lt;font style=&quot;font-size: 19px;&quot;&gt;&lt;font style=&quot;font-size: 19px;&quot;&gt;&lt;font style=&quot;font-size: 19px;&quot;&gt;&lt;font style=&quot;font-size: 19px;&quot;&gt;&lt;font style=&quot;font-size: 19px;&quot; face=&quot;Times New Roman&quot;&gt;&lt;font style=&quot;font-size: 18px;&quot;&gt;USERS&lt;/font&gt;&lt;/font&gt;&lt;/font&gt;&lt;/font&gt;&lt;/font&gt;&lt;/font&gt;&lt;/font&gt;&lt;/font&gt;&lt;/font&gt;&lt;/font&gt;&lt;/h4&gt;" style="rounded=0;whiteSpace=wrap;html=1;" vertex="1" parent="1">
          <mxGeometry x="110" y="120" width="110" height="40" as="geometry" />
        </mxCell>
        <mxCell id="4P1G4LsWBmaIqUn7CIRd-2" value="" style="endArrow=none;html=1;rounded=0;fontFamily=Times New Roman;fontSize=20;strokeWidth=3;" edge="1" parent="1" target="4P1G4LsWBmaIqUn7CIRd-3">
          <mxGeometry width="50" height="50" relative="1" as="geometry">
            <mxPoint x="120" y="120" as="sourcePoint" />
            <mxPoint x="80" y="80" as="targetPoint" />
          </mxGeometry>
        </mxCell>
        <mxCell id="4P1G4LsWBmaIqUn7CIRd-3" value="&lt;font style=&quot;font-size: 19px;&quot;&gt;&lt;font style=&quot;font-size: 18px;&quot;&gt;&lt;font style=&quot;font-size: 17px;&quot;&gt;&lt;font style=&quot;font-size: 16px;&quot;&gt;User_name&lt;/font&gt;&lt;/font&gt;&lt;/font&gt;&lt;/font&gt;" style="ellipse;whiteSpace=wrap;html=1;fontFamily=Times New Roman;fontSize=20;" vertex="1" parent="1">
          <mxGeometry x="20" y="30" width="90" height="50" as="geometry" />
        </mxCell>
        <mxCell id="4P1G4LsWBmaIqUn7CIRd-5" value="" style="endArrow=none;html=1;rounded=0;strokeWidth=3;fontFamily=Times New Roman;fontSize=16;" edge="1" parent="1" target="4P1G4LsWBmaIqUn7CIRd-6">
          <mxGeometry width="50" height="50" relative="1" as="geometry">
            <mxPoint x="140" y="120" as="sourcePoint" />
            <mxPoint x="160" y="60" as="targetPoint" />
          </mxGeometry>
        </mxCell>
        <mxCell id="4P1G4LsWBmaIqUn7CIRd-6" value="User_ID" style="ellipse;whiteSpace=wrap;html=1;fontFamily=Times New Roman;fontSize=16;" vertex="1" parent="1">
          <mxGeometry x="130" y="10" width="90" height="50" as="geometry" />
        </mxCell>
        <mxCell id="4P1G4LsWBmaIqUn7CIRd-9" value="" style="endArrow=none;html=1;rounded=0;strokeWidth=2;fontFamily=Times New Roman;fontSize=16;" edge="1" parent="1">
          <mxGeometry width="50" height="50" relative="1" as="geometry">
            <mxPoint x="150" y="50" as="sourcePoint" />
            <mxPoint x="200" y="50" as="targetPoint" />
          </mxGeometry>
        </mxCell>
        <mxCell id="4P1G4LsWBmaIqUn7CIRd-10" value="" style="endArrow=none;html=1;rounded=0;strokeWidth=3;fontFamily=Times New Roman;fontSize=16;" edge="1" parent="1" target="4P1G4LsWBmaIqUn7CIRd-12">
          <mxGeometry width="50" height="50" relative="1" as="geometry">
            <mxPoint x="180" y="120" as="sourcePoint" />
            <mxPoint x="240" y="70" as="targetPoint" />
          </mxGeometry>
        </mxCell>
        <mxCell id="4P1G4LsWBmaIqUn7CIRd-12" value="Phone_num" style="ellipse;whiteSpace=wrap;html=1;fontFamily=Times New Roman;fontSize=16;" vertex="1" parent="1">
          <mxGeometry x="230" y="30" width="90" height="50" as="geometry" />
        </mxCell>
        <mxCell id="4P1G4LsWBmaIqUn7CIRd-13" value="" style="endArrow=none;html=1;rounded=0;strokeWidth=2;fontFamily=Times New Roman;fontSize=16;" edge="1" parent="1">
          <mxGeometry width="50" height="50" relative="1" as="geometry">
            <mxPoint x="250" y="70" as="sourcePoint" />
            <mxPoint x="300" y="70" as="targetPoint" />
          </mxGeometry>
        </mxCell>
        <mxCell id="4P1G4LsWBmaIqUn7CIRd-14" value="" style="endArrow=none;html=1;rounded=0;strokeWidth=3;fontFamily=Times New Roman;fontSize=16;" edge="1" parent="1" target="4P1G4LsWBmaIqUn7CIRd-15">
          <mxGeometry width="50" height="50" relative="1" as="geometry">
            <mxPoint x="210" y="120" as="sourcePoint" />
            <mxPoint x="390" y="70" as="targetPoint" />
          </mxGeometry>
        </mxCell>
        <mxCell id="4P1G4LsWBmaIqUn7CIRd-15" value="Password" style="ellipse;whiteSpace=wrap;html=1;fontFamily=Times New Roman;fontSize=16;" vertex="1" parent="1">
          <mxGeometry x="330" y="30" width="90" height="50" as="geometry" />
        </mxCell>
        <mxCell id="4P1G4LsWBmaIqUn7CIRd-16" value="" style="endArrow=none;html=1;rounded=0;strokeWidth=3;fontFamily=Times New Roman;fontSize=16;" edge="1" parent="1">
          <mxGeometry width="50" height="50" relative="1" as="geometry">
            <mxPoint x="220" y="130" as="sourcePoint" />
            <mxPoint x="320" y="130" as="targetPoint" />
          </mxGeometry>
        </mxCell>
        <mxCell id="4P1G4LsWBmaIqUn7CIRd-24" value="(1,1)" style="edgeLabel;html=1;align=center;verticalAlign=middle;resizable=0;points=[];fontSize=18;fontFamily=Times New Roman;" vertex="1" connectable="0" parent="4P1G4LsWBmaIqUn7CIRd-16">
          <mxGeometry x="0.18" y="10" relative="1" as="geometry">
            <mxPoint x="11" y="-10" as="offset" />
          </mxGeometry>
        </mxCell>
        <mxCell id="4P1G4LsWBmaIqUn7CIRd-17" value="" style="endArrow=none;html=1;rounded=0;strokeWidth=3;fontFamily=Times New Roman;fontSize=16;" edge="1" parent="1">
          <mxGeometry width="50" height="50" relative="1" as="geometry">
            <mxPoint x="220" y="150" as="sourcePoint" />
            <mxPoint x="320" y="150" as="targetPoint" />
          </mxGeometry>
        </mxCell>
        <mxCell id="4P1G4LsWBmaIqUn7CIRd-19" value="&lt;h4 style=&quot;font-size: 18px;&quot;&gt;&lt;font style=&quot;font-size: 18px;&quot;&gt;PROFILE&lt;br&gt;&lt;/font&gt;&lt;/h4&gt;" style="rhombus;whiteSpace=wrap;html=1;fontFamily=Times New Roman;fontSize=16;" vertex="1" parent="1">
          <mxGeometry x="300" y="100" width="100" height="80" as="geometry" />
        </mxCell>
        <mxCell id="4P1G4LsWBmaIqUn7CIRd-20" value="" style="endArrow=none;html=1;rounded=0;strokeWidth=3;fontFamily=Times New Roman;fontSize=20;" edge="1" parent="1">
          <mxGeometry width="50" height="50" relative="1" as="geometry">
            <mxPoint x="390" y="130" as="sourcePoint" />
            <mxPoint x="490" y="130" as="targetPoint" />
          </mxGeometry>
        </mxCell>
        <mxCell id="4P1G4LsWBmaIqUn7CIRd-22" value="" style="endArrow=none;html=1;rounded=0;strokeWidth=3;fontFamily=Times New Roman;fontSize=20;" edge="1" parent="1">
          <mxGeometry width="50" height="50" relative="1" as="geometry">
            <mxPoint x="390" y="150" as="sourcePoint" />
            <mxPoint x="490" y="150" as="targetPoint" />
          </mxGeometry>
        </mxCell>
        <mxCell id="4P1G4LsWBmaIqUn7CIRd-23" value="&lt;h4 style=&quot;font-size: 19px;&quot;&gt;&lt;font style=&quot;font-size: 19px;&quot;&gt;&lt;font style=&quot;font-size: 18px;&quot;&gt;USER_PROFILE&lt;/font&gt;&lt;/font&gt;&lt;/h4&gt;" style="rounded=0;whiteSpace=wrap;html=1;fontFamily=Times New Roman;fontSize=20;" vertex="1" parent="1">
          <mxGeometry x="480" y="120" width="160" height="40" as="geometry" />
        </mxCell>
        <mxCell id="4P1G4LsWBmaIqUn7CIRd-25" value="(1,1)" style="edgeLabel;html=1;align=center;verticalAlign=middle;resizable=0;points=[];fontSize=18;fontFamily=Times New Roman;" vertex="1" connectable="0" parent="1">
          <mxGeometry x="440" y="110" as="geometry" />
        </mxCell>
        <mxCell id="4P1G4LsWBmaIqUn7CIRd-26" value="User_ID" style="ellipse;whiteSpace=wrap;html=1;fontFamily=Times New Roman;fontSize=16;" vertex="1" parent="1">
          <mxGeometry x="450" width="80" height="60" as="geometry" />
        </mxCell>
        <mxCell id="4P1G4LsWBmaIqUn7CIRd-27" value="" style="endArrow=none;html=1;rounded=0;strokeWidth=3;fontFamily=Times New Roman;fontSize=18;entryX=0.5;entryY=1;entryDx=0;entryDy=0;" edge="1" parent="1" target="4P1G4LsWBmaIqUn7CIRd-26">
          <mxGeometry width="50" height="50" relative="1" as="geometry">
            <mxPoint x="490" y="120" as="sourcePoint" />
            <mxPoint x="540" y="70" as="targetPoint" />
          </mxGeometry>
        </mxCell>
        <mxCell id="4P1G4LsWBmaIqUn7CIRd-28" value="" style="endArrow=none;html=1;rounded=0;strokeWidth=3;fontFamily=Times New Roman;fontSize=18;entryX=0.5;entryY=1;entryDx=0;entryDy=0;" edge="1" parent="1" target="4P1G4LsWBmaIqUn7CIRd-29">
          <mxGeometry width="50" height="50" relative="1" as="geometry">
            <mxPoint x="520" y="120" as="sourcePoint" />
            <mxPoint x="560" y="60" as="targetPoint" />
          </mxGeometry>
        </mxCell>
        <mxCell id="4P1G4LsWBmaIqUn7CIRd-29" value="Name" style="ellipse;whiteSpace=wrap;html=1;fontFamily=Times New Roman;fontSize=16;" vertex="1" parent="1">
          <mxGeometry x="550" y="20" width="90" height="50" as="geometry" />
        </mxCell>
        <mxCell id="4P1G4LsWBmaIqUn7CIRd-30" value="" style="endArrow=none;html=1;rounded=0;strokeWidth=3;fontFamily=Times New Roman;fontSize=18;" edge="1" parent="1">
          <mxGeometry width="50" height="50" relative="1" as="geometry">
            <mxPoint x="570" y="120" as="sourcePoint" />
            <mxPoint x="660" y="70" as="targetPoint" />
          </mxGeometry>
        </mxCell>
        <mxCell id="4P1G4LsWBmaIqUn7CIRd-31" value="Email" style="ellipse;whiteSpace=wrap;html=1;fontFamily=Times New Roman;fontSize=16;" vertex="1" parent="1">
          <mxGeometry x="650" y="30" width="90" height="50" as="geometry" />
        </mxCell>
        <mxCell id="4P1G4LsWBmaIqUn7CIRd-32" value="" style="endArrow=none;html=1;rounded=0;strokeWidth=3;fontFamily=Times New Roman;fontSize=18;" edge="1" parent="1">
          <mxGeometry width="50" height="50" relative="1" as="geometry">
            <mxPoint x="630" y="120" as="sourcePoint" />
            <mxPoint x="730" y="110" as="targetPoint" />
          </mxGeometry>
        </mxCell>
        <mxCell id="4P1G4LsWBmaIqUn7CIRd-33" value="Age" style="ellipse;whiteSpace=wrap;html=1;fontFamily=Times New Roman;fontSize=16;" vertex="1" parent="1">
          <mxGeometry x="730" y="80" width="90" height="50" as="geometry" />
        </mxCell>
        <mxCell id="4P1G4LsWBmaIqUn7CIRd-34" value="" style="endArrow=none;html=1;rounded=0;strokeWidth=3;fontFamily=Times New Roman;fontSize=18;" edge="1" parent="1">
          <mxGeometry width="50" height="50" relative="1" as="geometry">
            <mxPoint x="690" y="190" as="sourcePoint" />
            <mxPoint x="620" y="160" as="targetPoint" />
          </mxGeometry>
        </mxCell>
        <mxCell id="4P1G4LsWBmaIqUn7CIRd-35" value="Address" style="ellipse;whiteSpace=wrap;html=1;fontFamily=Times New Roman;fontSize=16;" vertex="1" parent="1">
          <mxGeometry x="680" y="170" width="90" height="50" as="geometry" />
        </mxCell>
        <mxCell id="4P1G4LsWBmaIqUn7CIRd-36" value="" style="endArrow=none;html=1;rounded=0;strokeWidth=3;fontFamily=Times New Roman;fontSize=18;" edge="1" parent="1">
          <mxGeometry width="50" height="50" relative="1" as="geometry">
            <mxPoint x="640" y="240" as="sourcePoint" />
            <mxPoint x="690" y="210" as="targetPoint" />
          </mxGeometry>
        </mxCell>
        <mxCell id="4P1G4LsWBmaIqUn7CIRd-37" value="Street" style="ellipse;whiteSpace=wrap;html=1;fontFamily=Times New Roman;fontSize=16;" vertex="1" parent="1">
          <mxGeometry x="570" y="230" width="90" height="50" as="geometry" />
        </mxCell>
        <mxCell id="4P1G4LsWBmaIqUn7CIRd-39" value="" style="endArrow=none;html=1;rounded=0;strokeWidth=3;fontFamily=Times New Roman;fontSize=18;" edge="1" parent="1">
          <mxGeometry width="50" height="50" relative="1" as="geometry">
            <mxPoint x="700" y="260" as="sourcePoint" />
            <mxPoint x="700.1360607616784" y="259.45575695328625" as="targetPoint" />
          </mxGeometry>
        </mxCell>
        <mxCell id="4P1G4LsWBmaIqUn7CIRd-41" value="" style="endArrow=none;html=1;rounded=0;strokeWidth=3;fontFamily=Times New Roman;fontSize=18;" edge="1" parent="1">
          <mxGeometry width="50" height="50" relative="1" as="geometry">
            <mxPoint x="690" y="260" as="sourcePoint" />
            <mxPoint x="720" y="220" as="targetPoint" />
          </mxGeometry>
        </mxCell>
        <mxCell id="4P1G4LsWBmaIqUn7CIRd-42" value="City" style="ellipse;whiteSpace=wrap;html=1;fontFamily=Times New Roman;fontSize=16;" vertex="1" parent="1">
          <mxGeometry x="650" y="260" width="90" height="50" as="geometry" />
        </mxCell>
        <mxCell id="4P1G4LsWBmaIqUn7CIRd-43" value="" style="endArrow=none;html=1;rounded=0;strokeWidth=3;fontFamily=Times New Roman;fontSize=18;entryX=0;entryY=0;entryDx=0;entryDy=0;" edge="1" parent="1" target="4P1G4LsWBmaIqUn7CIRd-46">
          <mxGeometry width="50" height="50" relative="1" as="geometry">
            <mxPoint x="770" y="190" as="sourcePoint" />
            <mxPoint x="820" y="140" as="targetPoint" />
          </mxGeometry>
        </mxCell>
        <mxCell id="4P1G4LsWBmaIqUn7CIRd-44" value="User_ID" style="ellipse;whiteSpace=wrap;html=1;fontFamily=Times New Roman;fontSize=16;" vertex="1" parent="1">
          <mxGeometry x="750" y="250" width="90" height="50" as="geometry" />
        </mxCell>
        <mxCell id="4P1G4LsWBmaIqUn7CIRd-45" value="" style="endArrow=none;html=1;rounded=0;strokeWidth=3;fontFamily=Times New Roman;fontSize=18;exitX=0.5;exitY=0;exitDx=0;exitDy=0;" edge="1" parent="1" source="4P1G4LsWBmaIqUn7CIRd-44">
          <mxGeometry width="50" height="50" relative="1" as="geometry">
            <mxPoint x="700" y="270" as="sourcePoint" />
            <mxPoint x="750" y="220" as="targetPoint" />
          </mxGeometry>
        </mxCell>
        <mxCell id="4P1G4LsWBmaIqUn7CIRd-46" value="Zip" style="ellipse;whiteSpace=wrap;html=1;fontFamily=Times New Roman;fontSize=16;" vertex="1" parent="1">
          <mxGeometry x="820" y="200" width="90" height="50" as="geometry" />
        </mxCell>
        <mxCell id="4P1G4LsWBmaIqUn7CIRd-49" style="edgeStyle=orthogonalEdgeStyle;rounded=0;orthogonalLoop=1;jettySize=auto;html=1;exitX=0;exitY=1;exitDx=0;exitDy=0;strokeWidth=3;fontFamily=Times New Roman;fontSize=18;" edge="1" parent="1" source="4P1G4LsWBmaIqUn7CIRd-47">
          <mxGeometry relative="1" as="geometry">
            <mxPoint x="413" y="243" as="targetPoint" />
          </mxGeometry>
        </mxCell>
        <mxCell id="4P1G4LsWBmaIqUn7CIRd-47" value="History" style="ellipse;whiteSpace=wrap;html=1;fontFamily=Times New Roman;fontSize=16;" vertex="1" parent="1">
          <mxGeometry x="400" y="200" width="90" height="50" as="geometry" />
        </mxCell>
        <mxCell id="4P1G4LsWBmaIqUn7CIRd-48" value="" style="endArrow=none;html=1;rounded=0;strokeWidth=3;fontFamily=Times New Roman;fontSize=18;" edge="1" parent="1">
          <mxGeometry width="50" height="50" relative="1" as="geometry">
            <mxPoint x="450" y="200" as="sourcePoint" />
            <mxPoint x="500" y="160" as="targetPoint" />
          </mxGeometry>
        </mxCell>
        <mxCell id="4P1G4LsWBmaIqUn7CIRd-51" value="" style="endArrow=none;html=1;rounded=0;strokeWidth=2;fontFamily=Times New Roman;fontSize=16;" edge="1" parent="1">
          <mxGeometry width="50" height="50" relative="1" as="geometry">
            <mxPoint x="470" y="44.5" as="sourcePoint" />
            <mxPoint x="520" y="44.5" as="targetPoint" />
          </mxGeometry>
        </mxCell>
        <mxCell id="4P1G4LsWBmaIqUn7CIRd-52" value="" style="endArrow=none;html=1;rounded=0;strokeWidth=3;fontFamily=Times New Roman;fontSize=18;" edge="1" parent="1">
          <mxGeometry width="50" height="50" relative="1" as="geometry">
            <mxPoint x="560" y="300" as="sourcePoint" />
            <mxPoint x="560" y="160" as="targetPoint" />
          </mxGeometry>
        </mxCell>
        <mxCell id="4P1G4LsWBmaIqUn7CIRd-54" value="" style="rhombus;whiteSpace=wrap;html=1;fontFamily=Times New Roman;fontSize=18;" vertex="1" parent="1">
          <mxGeometry x="380" y="280" width="360" height="160" as="geometry" />
        </mxCell>
        <mxCell id="4P1G4LsWBmaIqUn7CIRd-55" value="DEPENDENTS_OF" style="rhombus;whiteSpace=wrap;html=1;fontFamily=Times New Roman;fontSize=18;" vertex="1" parent="1">
          <mxGeometry x="430" y="300" width="260" height="120" as="geometry" />
        </mxCell>
        <mxCell id="4P1G4LsWBmaIqUn7CIRd-57" value="" style="endArrow=none;html=1;rounded=0;strokeWidth=3;fontFamily=Times New Roman;fontSize=18;" edge="1" parent="1">
          <mxGeometry width="50" height="50" relative="1" as="geometry">
            <mxPoint x="540" y="500" as="sourcePoint" />
            <mxPoint x="540" y="430" as="targetPoint" />
            <Array as="points">
              <mxPoint x="540" y="470" />
            </Array>
          </mxGeometry>
        </mxCell>
        <mxCell id="4P1G4LsWBmaIqUn7CIRd-60" value="" style="endArrow=none;html=1;rounded=0;strokeWidth=3;fontFamily=Times New Roman;fontSize=18;" edge="1" parent="1" target="4P1G4LsWBmaIqUn7CIRd-59">
          <mxGeometry width="50" height="50" relative="1" as="geometry">
            <mxPoint x="580" y="500" as="sourcePoint" />
            <mxPoint x="580" y="430" as="targetPoint" />
          </mxGeometry>
        </mxCell>
        <mxCell id="4P1G4LsWBmaIqUn7CIRd-59" value="" style="rounded=0;whiteSpace=wrap;html=1;fontFamily=Times New Roman;fontSize=18;" vertex="1" parent="1">
          <mxGeometry x="480" y="500" width="180" height="60" as="geometry" />
        </mxCell>
        <mxCell id="4P1G4LsWBmaIqUn7CIRd-61" value="" style="endArrow=none;html=1;rounded=0;strokeWidth=3;fontFamily=Times New Roman;fontSize=18;entryX=0.556;entryY=0.938;entryDx=0;entryDy=0;entryPerimeter=0;" edge="1" parent="1" target="4P1G4LsWBmaIqUn7CIRd-54">
          <mxGeometry width="50" height="50" relative="1" as="geometry">
            <mxPoint x="580" y="500" as="sourcePoint" />
            <mxPoint x="580" y="440" as="targetPoint" />
          </mxGeometry>
        </mxCell>
        <mxCell id="4P1G4LsWBmaIqUn7CIRd-62" value="&lt;h4&gt;DEPENDENTS&lt;/h4&gt;" style="rounded=0;whiteSpace=wrap;html=1;fontFamily=Times New Roman;fontSize=18;" vertex="1" parent="1">
          <mxGeometry x="500" y="510" width="130" height="40" as="geometry" />
        </mxCell>
        <mxCell id="4P1G4LsWBmaIqUn7CIRd-63" value="" style="endArrow=none;html=1;rounded=0;strokeWidth=3;fontFamily=Times New Roman;fontSize=18;" edge="1" parent="1">
          <mxGeometry width="50" height="50" relative="1" as="geometry">
            <mxPoint x="470" y="610" as="sourcePoint" />
            <mxPoint x="520" y="560" as="targetPoint" />
          </mxGeometry>
        </mxCell>
        <mxCell id="4P1G4LsWBmaIqUn7CIRd-65" value="Name" style="ellipse;whiteSpace=wrap;html=1;fontFamily=Times New Roman;fontSize=16;" vertex="1" parent="1">
          <mxGeometry x="410" y="600" width="90" height="50" as="geometry" />
        </mxCell>
        <mxCell id="4P1G4LsWBmaIqUn7CIRd-66" value="" style="endArrow=none;html=1;rounded=0;strokeWidth=3;fontFamily=Times New Roman;fontSize=18;" edge="1" parent="1">
          <mxGeometry width="50" height="50" relative="1" as="geometry">
            <mxPoint x="550" y="610" as="sourcePoint" />
            <mxPoint x="550" y="560" as="targetPoint" />
          </mxGeometry>
        </mxCell>
        <mxCell id="4P1G4LsWBmaIqUn7CIRd-67" value="Phone" style="ellipse;whiteSpace=wrap;html=1;fontFamily=Times New Roman;fontSize=16;" vertex="1" parent="1">
          <mxGeometry x="510" y="610" width="90" height="50" as="geometry" />
        </mxCell>
        <mxCell id="4P1G4LsWBmaIqUn7CIRd-69" value="" style="endArrow=none;html=1;rounded=0;strokeWidth=3;fontFamily=Times New Roman;fontSize=18;" edge="1" parent="1">
          <mxGeometry width="50" height="50" relative="1" as="geometry">
            <mxPoint x="590" y="560" as="sourcePoint" />
            <mxPoint x="640" y="610" as="targetPoint" />
          </mxGeometry>
        </mxCell>
        <mxCell id="4P1G4LsWBmaIqUn7CIRd-70" value="Relation" style="ellipse;whiteSpace=wrap;html=1;fontFamily=Times New Roman;fontSize=16;" vertex="1" parent="1">
          <mxGeometry x="610" y="610" width="90" height="50" as="geometry" />
        </mxCell>
        <mxCell id="4P1G4LsWBmaIqUn7CIRd-71" value="" style="endArrow=none;dashed=1;html=1;rounded=0;strokeWidth=2;fontFamily=Times New Roman;fontSize=18;" edge="1" parent="1">
          <mxGeometry width="50" height="50" relative="1" as="geometry">
            <mxPoint x="430" y="634.5" as="sourcePoint" />
            <mxPoint x="480" y="634.5" as="targetPoint" />
          </mxGeometry>
        </mxCell>
        <mxCell id="4P1G4LsWBmaIqUn7CIRd-72" value="(0, N)" style="text;html=1;align=center;verticalAlign=middle;resizable=0;points=[];autosize=1;strokeColor=none;fillColor=none;fontSize=18;fontFamily=Times New Roman;" vertex="1" parent="1">
          <mxGeometry x="490" y="230" width="70" height="40" as="geometry" />
        </mxCell>
        <mxCell id="4P1G4LsWBmaIqUn7CIRd-73" value="(1, 1)" style="text;html=1;align=center;verticalAlign=middle;resizable=0;points=[];autosize=1;strokeColor=none;fillColor=none;fontSize=18;fontFamily=Times New Roman;" vertex="1" parent="1">
          <mxGeometry x="470" y="430" width="60" height="40" as="geometry" />
        </mxCell>
        <mxCell id="4P1G4LsWBmaIqUn7CIRd-74" value="&lt;h4&gt;&lt;font style=&quot;font-size: 18px;&quot;&gt;&lt;font style=&quot;font-size: 18px;&quot;&gt;&lt;font face=&quot;Times New Roman&quot;&gt;SYMPTOMS&lt;/font&gt;&lt;/font&gt;&lt;/font&gt;&lt;/h4&gt;" style="rounded=0;whiteSpace=wrap;html=1;" vertex="1" parent="1">
          <mxGeometry x="110" y="350" width="110" height="40" as="geometry" />
        </mxCell>
        <mxCell id="4P1G4LsWBmaIqUn7CIRd-75" value="" style="endArrow=none;html=1;rounded=0;fontFamily=Times New Roman;fontSize=20;strokeWidth=3;" edge="1" parent="1">
          <mxGeometry width="50" height="50" relative="1" as="geometry">
            <mxPoint x="130" y="350" as="sourcePoint" />
            <mxPoint x="94" y="308" as="targetPoint" />
          </mxGeometry>
        </mxCell>
        <mxCell id="4P1G4LsWBmaIqUn7CIRd-76" value="Symptom_ID" style="ellipse;whiteSpace=wrap;html=1;fontFamily=Times New Roman;fontSize=16;" vertex="1" parent="1">
          <mxGeometry x="20" y="260" width="110" height="50" as="geometry" />
        </mxCell>
        <mxCell id="4P1G4LsWBmaIqUn7CIRd-77" value="" style="endArrow=none;html=1;rounded=0;strokeWidth=2;fontFamily=Times New Roman;fontSize=18;" edge="1" parent="1">
          <mxGeometry width="50" height="50" relative="1" as="geometry">
            <mxPoint x="35" y="300" as="sourcePoint" />
            <mxPoint x="115" y="300" as="targetPoint" />
          </mxGeometry>
        </mxCell>
        <mxCell id="4P1G4LsWBmaIqUn7CIRd-78" value="" style="endArrow=none;html=1;rounded=0;strokeWidth=3;fontFamily=Times New Roman;fontSize=18;" edge="1" parent="1">
          <mxGeometry width="50" height="50" relative="1" as="geometry">
            <mxPoint x="160" y="350" as="sourcePoint" />
            <mxPoint x="170" y="290" as="targetPoint" />
          </mxGeometry>
        </mxCell>
        <mxCell id="4P1G4LsWBmaIqUn7CIRd-79" value="Symptom_Name" style="ellipse;whiteSpace=wrap;html=1;fontFamily=Times New Roman;fontSize=16;" vertex="1" parent="1">
          <mxGeometry x="130" y="240" width="120" height="50" as="geometry" />
        </mxCell>
        <mxCell id="4P1G4LsWBmaIqUn7CIRd-80" value="" style="endArrow=none;html=1;rounded=0;strokeWidth=3;fontFamily=Times New Roman;fontSize=18;" edge="1" parent="1">
          <mxGeometry width="50" height="50" relative="1" as="geometry">
            <mxPoint x="200" y="350" as="sourcePoint" />
            <mxPoint x="270" y="310" as="targetPoint" />
          </mxGeometry>
        </mxCell>
        <mxCell id="4P1G4LsWBmaIqUn7CIRd-83" value="" style="endArrow=none;html=1;rounded=0;strokeWidth=3;fontFamily=Times New Roman;fontSize=16;" edge="1" parent="1">
          <mxGeometry width="50" height="50" relative="1" as="geometry">
            <mxPoint x="160" y="460" as="sourcePoint" />
            <mxPoint x="160" y="390" as="targetPoint" />
          </mxGeometry>
        </mxCell>
        <mxCell id="4P1G4LsWBmaIqUn7CIRd-84" value="&lt;h4 style=&quot;font-size: 17px;&quot;&gt;&lt;font style=&quot;font-size: 17px;&quot;&gt;&lt;font style=&quot;font-size: 18px;&quot;&gt;OF_DRUG&lt;/font&gt;&lt;/font&gt;&lt;/h4&gt;" style="rhombus;whiteSpace=wrap;html=1;fontFamily=Times New Roman;fontSize=16;" vertex="1" parent="1">
          <mxGeometry x="90" y="460" width="140" height="90" as="geometry" />
        </mxCell>
        <mxCell id="4P1G4LsWBmaIqUn7CIRd-85" value="" style="endArrow=none;html=1;rounded=0;strokeWidth=3;fontFamily=Times New Roman;fontSize=18;" edge="1" parent="1">
          <mxGeometry width="50" height="50" relative="1" as="geometry">
            <mxPoint x="140" y="630" as="sourcePoint" />
            <mxPoint x="140" y="540" as="targetPoint" />
          </mxGeometry>
        </mxCell>
        <mxCell id="4P1G4LsWBmaIqUn7CIRd-86" value="" style="endArrow=none;html=1;rounded=0;strokeWidth=3;fontFamily=Times New Roman;fontSize=18;" edge="1" parent="1">
          <mxGeometry width="50" height="50" relative="1" as="geometry">
            <mxPoint x="180" y="630" as="sourcePoint" />
            <mxPoint x="180" y="540" as="targetPoint" />
          </mxGeometry>
        </mxCell>
        <mxCell id="4P1G4LsWBmaIqUn7CIRd-87" value="(0, N)" style="text;html=1;align=center;verticalAlign=middle;resizable=0;points=[];autosize=1;strokeColor=none;fillColor=none;fontSize=18;fontFamily=Times New Roman;" vertex="1" parent="1">
          <mxGeometry x="90" y="420" width="70" height="40" as="geometry" />
        </mxCell>
        <mxCell id="4P1G4LsWBmaIqUn7CIRd-88" value="(1, N)" style="text;html=1;align=center;verticalAlign=middle;resizable=0;points=[];autosize=1;strokeColor=none;fillColor=none;fontSize=18;fontFamily=Times New Roman;" vertex="1" parent="1">
          <mxGeometry x="70" y="560" width="70" height="40" as="geometry" />
        </mxCell>
        <mxCell id="4P1G4LsWBmaIqUn7CIRd-89" value="&lt;h4&gt;DRUG&lt;/h4&gt;" style="rounded=0;whiteSpace=wrap;html=1;fontFamily=Times New Roman;fontSize=18;" vertex="1" parent="1">
          <mxGeometry x="100" y="630" width="120" height="60" as="geometry" />
        </mxCell>
        <mxCell id="4P1G4LsWBmaIqUn7CIRd-91" value="" style="ellipse;whiteSpace=wrap;html=1;fontFamily=Times New Roman;fontSize=18;" vertex="1" parent="1">
          <mxGeometry x="260" y="250" width="120" height="80" as="geometry" />
        </mxCell>
        <mxCell id="4P1G4LsWBmaIqUn7CIRd-92" value="&lt;font style=&quot;font-size: 18px;&quot;&gt;&lt;font style=&quot;font-size: 18px;&quot;&gt;&lt;font style=&quot;font-size: 17px;&quot;&gt;&lt;font style=&quot;font-size: 16px;&quot;&gt;Drug_ID&lt;/font&gt;&lt;/font&gt;&lt;/font&gt;&lt;/font&gt;" style="ellipse;whiteSpace=wrap;html=1;fontFamily=Times New Roman;fontSize=20;" vertex="1" parent="1">
          <mxGeometry x="275" y="265" width="90" height="50" as="geometry" />
        </mxCell>
        <mxCell id="4P1G4LsWBmaIqUn7CIRd-93" value="&lt;font style=&quot;font-size: 18px;&quot;&gt;&lt;font style=&quot;font-size: 18px;&quot;&gt;&lt;font style=&quot;font-size: 17px;&quot;&gt;&lt;font style=&quot;font-size: 16px;&quot;&gt;Drug_ID&lt;/font&gt;&lt;/font&gt;&lt;/font&gt;&lt;/font&gt;" style="ellipse;whiteSpace=wrap;html=1;fontFamily=Times New Roman;fontSize=20;" vertex="1" parent="1">
          <mxGeometry x="-40" y="610" width="90" height="70" as="geometry" />
        </mxCell>
        <mxCell id="4P1G4LsWBmaIqUn7CIRd-94" value="" style="endArrow=none;html=1;rounded=0;strokeWidth=3;fontFamily=Times New Roman;fontSize=18;exitX=1;exitY=0.5;exitDx=0;exitDy=0;entryX=0;entryY=0.5;entryDx=0;entryDy=0;" edge="1" parent="1" source="4P1G4LsWBmaIqUn7CIRd-93" target="4P1G4LsWBmaIqUn7CIRd-89">
          <mxGeometry width="50" height="50" relative="1" as="geometry">
            <mxPoint y="730" as="sourcePoint" />
            <mxPoint x="50" y="680" as="targetPoint" />
          </mxGeometry>
        </mxCell>
        <mxCell id="4P1G4LsWBmaIqUn7CIRd-95" value="" style="endArrow=none;html=1;rounded=0;strokeWidth=3;fontFamily=Times New Roman;fontSize=18;" edge="1" parent="1">
          <mxGeometry width="50" height="50" relative="1" as="geometry">
            <mxPoint x="-20" y="659" as="sourcePoint" />
            <mxPoint x="30" y="659" as="targetPoint" />
          </mxGeometry>
        </mxCell>
        <mxCell id="4P1G4LsWBmaIqUn7CIRd-96" value="" style="endArrow=none;html=1;rounded=0;strokeWidth=3;fontFamily=Times New Roman;fontSize=18;" edge="1" parent="1">
          <mxGeometry width="50" height="50" relative="1" as="geometry">
            <mxPoint x="40" y="700" as="sourcePoint" />
            <mxPoint x="100" y="670" as="targetPoint" />
          </mxGeometry>
        </mxCell>
        <mxCell id="4P1G4LsWBmaIqUn7CIRd-97" value="Drug_name" style="ellipse;whiteSpace=wrap;html=1;fontFamily=Times New Roman;fontSize=18;" vertex="1" parent="1">
          <mxGeometry x="-40" y="690" width="100" height="60" as="geometry" />
        </mxCell>
        <mxCell id="4P1G4LsWBmaIqUn7CIRd-98" value="Drug_description" style="ellipse;whiteSpace=wrap;html=1;fontFamily=Times New Roman;fontSize=18;" vertex="1" parent="1">
          <mxGeometry x="-25" y="780" width="165" height="60" as="geometry" />
        </mxCell>
        <mxCell id="4P1G4LsWBmaIqUn7CIRd-99" value="" style="endArrow=none;html=1;rounded=0;strokeWidth=3;fontFamily=Times New Roman;fontSize=18;exitX=0.5;exitY=0;exitDx=0;exitDy=0;" edge="1" parent="1" source="4P1G4LsWBmaIqUn7CIRd-98">
          <mxGeometry width="50" height="50" relative="1" as="geometry">
            <mxPoint x="90" y="740" as="sourcePoint" />
            <mxPoint x="140" y="690" as="targetPoint" />
          </mxGeometry>
        </mxCell>
        <mxCell id="4P1G4LsWBmaIqUn7CIRd-101" value="" style="endArrow=none;html=1;rounded=0;strokeWidth=3;fontFamily=Times New Roman;fontSize=18;exitX=0.5;exitY=0;exitDx=0;exitDy=0;" edge="1" parent="1" source="4P1G4LsWBmaIqUn7CIRd-102">
          <mxGeometry width="50" height="50" relative="1" as="geometry">
            <mxPoint x="180" y="750" as="sourcePoint" />
            <mxPoint x="170" y="690" as="targetPoint" />
          </mxGeometry>
        </mxCell>
        <mxCell id="4P1G4LsWBmaIqUn7CIRd-102" value="Price" style="ellipse;whiteSpace=wrap;html=1;fontFamily=Times New Roman;fontSize=18;" vertex="1" parent="1">
          <mxGeometry x="140" y="810" width="100" height="50" as="geometry" />
        </mxCell>
        <mxCell id="4P1G4LsWBmaIqUn7CIRd-103" value="" style="endArrow=none;html=1;rounded=0;strokeWidth=3;fontFamily=Times New Roman;fontSize=18;entryX=0.75;entryY=1;entryDx=0;entryDy=0;exitX=0.5;exitY=0;exitDx=0;exitDy=0;" edge="1" parent="1" source="4P1G4LsWBmaIqUn7CIRd-104" target="4P1G4LsWBmaIqUn7CIRd-89">
          <mxGeometry width="50" height="50" relative="1" as="geometry">
            <mxPoint x="240" y="750" as="sourcePoint" />
            <mxPoint x="270" y="720" as="targetPoint" />
          </mxGeometry>
        </mxCell>
        <mxCell id="4P1G4LsWBmaIqUn7CIRd-104" value="" style="ellipse;whiteSpace=wrap;html=1;fontFamily=Times New Roman;fontSize=18;" vertex="1" parent="1">
          <mxGeometry x="210" y="735" width="170" height="85" as="geometry" />
        </mxCell>
        <mxCell id="4P1G4LsWBmaIqUn7CIRd-105" value="Pharmacy_ID" style="ellipse;whiteSpace=wrap;html=1;fontFamily=Times New Roman;fontSize=18;" vertex="1" parent="1">
          <mxGeometry x="235" y="750" width="120" height="52.5" as="geometry" />
        </mxCell>
        <mxCell id="4P1G4LsWBmaIqUn7CIRd-106" value="" style="endArrow=none;html=1;rounded=0;strokeWidth=3;fontFamily=Times New Roman;fontSize=18;" edge="1" parent="1">
          <mxGeometry width="50" height="50" relative="1" as="geometry">
            <mxPoint x="220" y="650" as="sourcePoint" />
            <mxPoint x="570" y="740" as="targetPoint" />
          </mxGeometry>
        </mxCell>
        <mxCell id="4P1G4LsWBmaIqUn7CIRd-107" value="" style="endArrow=none;html=1;rounded=0;strokeWidth=3;fontFamily=Times New Roman;fontSize=18;" edge="1" parent="1">
          <mxGeometry width="50" height="50" relative="1" as="geometry">
            <mxPoint x="220" y="670" as="sourcePoint" />
            <mxPoint x="570" y="760" as="targetPoint" />
          </mxGeometry>
        </mxCell>
        <mxCell id="4P1G4LsWBmaIqUn7CIRd-108" value="&lt;h4&gt;OF_PHARMACY&lt;/h4&gt;" style="rhombus;whiteSpace=wrap;html=1;fontFamily=Times New Roman;fontSize=18;direction=south;rotation=0;" vertex="1" parent="1">
          <mxGeometry x="550" y="700" width="190" height="100" as="geometry" />
        </mxCell>
        <mxCell id="4P1G4LsWBmaIqUn7CIRd-109" value="(1, N)" style="text;html=1;align=center;verticalAlign=middle;resizable=0;points=[];autosize=1;strokeColor=none;fillColor=none;fontSize=18;fontFamily=Times New Roman;" vertex="1" parent="1">
          <mxGeometry x="485" y="690" width="70" height="40" as="geometry" />
        </mxCell>
        <mxCell id="4P1G4LsWBmaIqUn7CIRd-110" value="" style="endArrow=none;html=1;rounded=0;strokeWidth=3;fontFamily=Times New Roman;fontSize=18;" edge="1" parent="1">
          <mxGeometry width="50" height="50" relative="1" as="geometry">
            <mxPoint x="630" y="860" as="sourcePoint" />
            <mxPoint x="630" y="790" as="targetPoint" />
          </mxGeometry>
        </mxCell>
        <mxCell id="4P1G4LsWBmaIqUn7CIRd-111" value="" style="endArrow=none;html=1;rounded=0;strokeWidth=3;fontFamily=Times New Roman;fontSize=18;" edge="1" parent="1">
          <mxGeometry width="50" height="50" relative="1" as="geometry">
            <mxPoint x="660" y="860" as="sourcePoint" />
            <mxPoint x="659" y="790" as="targetPoint" />
          </mxGeometry>
        </mxCell>
        <mxCell id="4P1G4LsWBmaIqUn7CIRd-112" value="&lt;h4&gt;PHARMACY_INFO&lt;/h4&gt;" style="rounded=0;whiteSpace=wrap;html=1;fontFamily=Times New Roman;fontSize=18;" vertex="1" parent="1">
          <mxGeometry x="560" y="860" width="180" height="60" as="geometry" />
        </mxCell>
        <mxCell id="4P1G4LsWBmaIqUn7CIRd-113" style="edgeStyle=orthogonalEdgeStyle;rounded=0;orthogonalLoop=1;jettySize=auto;html=1;exitX=0.5;exitY=1;exitDx=0;exitDy=0;strokeWidth=3;fontFamily=Times New Roman;fontSize=18;" edge="1" parent="1" source="4P1G4LsWBmaIqUn7CIRd-112" target="4P1G4LsWBmaIqUn7CIRd-112">
          <mxGeometry relative="1" as="geometry" />
        </mxCell>
        <mxCell id="4P1G4LsWBmaIqUn7CIRd-114" value="" style="endArrow=none;html=1;rounded=0;strokeWidth=3;fontFamily=Times New Roman;fontSize=18;" edge="1" parent="1">
          <mxGeometry width="50" height="50" relative="1" as="geometry">
            <mxPoint x="530" y="970" as="sourcePoint" />
            <mxPoint x="580" y="920" as="targetPoint" />
          </mxGeometry>
        </mxCell>
        <mxCell id="4P1G4LsWBmaIqUn7CIRd-115" value="Pharmacy_ID" style="ellipse;whiteSpace=wrap;html=1;fontFamily=Times New Roman;fontSize=18;" vertex="1" parent="1">
          <mxGeometry x="420" y="970" width="160" height="70" as="geometry" />
        </mxCell>
        <mxCell id="4P1G4LsWBmaIqUn7CIRd-116" value="" style="endArrow=none;html=1;rounded=0;strokeWidth=3;fontFamily=Times New Roman;fontSize=18;entryX=0.813;entryY=0.714;entryDx=0;entryDy=0;entryPerimeter=0;" edge="1" parent="1" target="4P1G4LsWBmaIqUn7CIRd-115">
          <mxGeometry width="50" height="50" relative="1" as="geometry">
            <mxPoint x="455" y="1020" as="sourcePoint" />
            <mxPoint x="525" y="1020" as="targetPoint" />
          </mxGeometry>
        </mxCell>
        <mxCell id="4P1G4LsWBmaIqUn7CIRd-117" value="" style="endArrow=none;html=1;rounded=0;strokeWidth=3;fontFamily=Times New Roman;fontSize=18;" edge="1" parent="1">
          <mxGeometry width="50" height="50" relative="1" as="geometry">
            <mxPoint x="640" y="980" as="sourcePoint" />
            <mxPoint x="620" y="920" as="targetPoint" />
          </mxGeometry>
        </mxCell>
        <mxCell id="4P1G4LsWBmaIqUn7CIRd-118" value="Pharmacy_name" style="ellipse;whiteSpace=wrap;html=1;fontFamily=Times New Roman;fontSize=18;" vertex="1" parent="1">
          <mxGeometry x="585" y="980" width="135" height="70" as="geometry" />
        </mxCell>
        <mxCell id="4P1G4LsWBmaIqUn7CIRd-119" value="" style="endArrow=none;html=1;rounded=0;strokeWidth=3;fontFamily=Times New Roman;fontSize=18;" edge="1" parent="1">
          <mxGeometry width="50" height="50" relative="1" as="geometry">
            <mxPoint x="760" y="960" as="sourcePoint" />
            <mxPoint x="680" y="920" as="targetPoint" />
          </mxGeometry>
        </mxCell>
        <mxCell id="4P1G4LsWBmaIqUn7CIRd-121" value="" style="ellipse;whiteSpace=wrap;html=1;fontFamily=Times New Roman;fontSize=18;" vertex="1" parent="1">
          <mxGeometry x="735" y="950" width="120" height="80" as="geometry" />
        </mxCell>
        <mxCell id="4P1G4LsWBmaIqUn7CIRd-122" value="Drug_ID" style="ellipse;whiteSpace=wrap;html=1;fontFamily=Times New Roman;fontSize=18;" vertex="1" parent="1">
          <mxGeometry x="750" y="970" width="90" height="40" as="geometry" />
        </mxCell>
        <mxCell id="4P1G4LsWBmaIqUn7CIRd-123" value="(1, N)" style="text;html=1;align=center;verticalAlign=middle;resizable=0;points=[];autosize=1;strokeColor=none;fillColor=none;fontSize=18;fontFamily=Times New Roman;" vertex="1" parent="1">
          <mxGeometry x="660" y="802.5" width="70" height="40" as="geometry" />
        </mxCell>
        <mxCell id="4P1G4LsWBmaIqUn7CIRd-124" value="" style="endArrow=none;html=1;rounded=0;strokeWidth=3;fontFamily=Times New Roman;fontSize=18;" edge="1" parent="1">
          <mxGeometry width="50" height="50" relative="1" as="geometry">
            <mxPoint x="390" y="890" as="sourcePoint" />
            <mxPoint x="560" y="870" as="targetPoint" />
          </mxGeometry>
        </mxCell>
        <mxCell id="4P1G4LsWBmaIqUn7CIRd-125" value="" style="endArrow=none;html=1;rounded=0;strokeWidth=3;fontFamily=Times New Roman;fontSize=18;" edge="1" parent="1">
          <mxGeometry width="50" height="50" relative="1" as="geometry">
            <mxPoint x="390" y="910" as="sourcePoint" />
            <mxPoint x="560" y="890" as="targetPoint" />
          </mxGeometry>
        </mxCell>
        <mxCell id="4P1G4LsWBmaIqUn7CIRd-126" value="&lt;h4&gt;OF_REMAINING&lt;/h4&gt;" style="rhombus;whiteSpace=wrap;html=1;fontFamily=Times New Roman;fontSize=18;" vertex="1" parent="1">
          <mxGeometry x="230" y="860" width="180" height="80" as="geometry" />
        </mxCell>
        <mxCell id="4P1G4LsWBmaIqUn7CIRd-127" value="(1, 1)" style="text;html=1;align=center;verticalAlign=middle;resizable=0;points=[];autosize=1;strokeColor=none;fillColor=none;fontSize=18;fontFamily=Times New Roman;" vertex="1" parent="1">
          <mxGeometry x="370" y="850" width="60" height="40" as="geometry" />
        </mxCell>
        <mxCell id="4P1G4LsWBmaIqUn7CIRd-128" value="" style="endArrow=none;html=1;rounded=0;strokeWidth=3;fontFamily=Times New Roman;fontSize=18;" edge="1" parent="1">
          <mxGeometry width="50" height="50" relative="1" as="geometry">
            <mxPoint x="150" y="930" as="sourcePoint" />
            <mxPoint x="250" y="910" as="targetPoint" />
          </mxGeometry>
        </mxCell>
        <mxCell id="4P1G4LsWBmaIqUn7CIRd-129" value="" style="endArrow=none;html=1;rounded=0;strokeWidth=3;fontFamily=Times New Roman;fontSize=18;" edge="1" parent="1">
          <mxGeometry width="50" height="50" relative="1" as="geometry">
            <mxPoint x="150" y="910" as="sourcePoint" />
            <mxPoint x="250" y="890" as="targetPoint" />
          </mxGeometry>
        </mxCell>
        <mxCell id="4P1G4LsWBmaIqUn7CIRd-130" value="&lt;h4&gt;REMAINING&lt;/h4&gt;" style="rounded=0;whiteSpace=wrap;html=1;fontFamily=Times New Roman;fontSize=18;" vertex="1" parent="1">
          <mxGeometry x="30" y="900" width="120" height="60" as="geometry" />
        </mxCell>
        <mxCell id="4P1G4LsWBmaIqUn7CIRd-131" value="(1, 1)" style="text;html=1;align=center;verticalAlign=middle;resizable=0;points=[];autosize=1;strokeColor=none;fillColor=none;fontSize=18;fontFamily=Times New Roman;" vertex="1" parent="1">
          <mxGeometry x="180" y="920" width="60" height="40" as="geometry" />
        </mxCell>
        <mxCell id="4P1G4LsWBmaIqUn7CIRd-132" value="" style="endArrow=none;html=1;rounded=0;strokeWidth=3;fontFamily=Times New Roman;fontSize=18;" edge="1" parent="1">
          <mxGeometry width="50" height="50" relative="1" as="geometry">
            <mxPoint x="10" y="1010" as="sourcePoint" />
            <mxPoint x="60" y="960" as="targetPoint" />
          </mxGeometry>
        </mxCell>
        <mxCell id="4P1G4LsWBmaIqUn7CIRd-133" value="Pharmacy_ID" style="ellipse;whiteSpace=wrap;html=1;fontFamily=Times New Roman;fontSize=18;" vertex="1" parent="1">
          <mxGeometry x="-60" y="1000" width="160" height="70" as="geometry" />
        </mxCell>
        <mxCell id="4P1G4LsWBmaIqUn7CIRd-134" value="" style="endArrow=none;html=1;rounded=0;strokeWidth=3;fontFamily=Times New Roman;fontSize=18;entryX=0.813;entryY=0.714;entryDx=0;entryDy=0;entryPerimeter=0;" edge="1" parent="1">
          <mxGeometry width="50" height="50" relative="1" as="geometry">
            <mxPoint x="-27.5" y="1050" as="sourcePoint" />
            <mxPoint x="67.5" y="1050" as="targetPoint" />
          </mxGeometry>
        </mxCell>
        <mxCell id="4P1G4LsWBmaIqUn7CIRd-135" value="" style="endArrow=none;html=1;rounded=0;strokeWidth=3;fontFamily=Times New Roman;fontSize=18;entryX=0.5;entryY=1;entryDx=0;entryDy=0;" edge="1" parent="1" target="4P1G4LsWBmaIqUn7CIRd-130">
          <mxGeometry width="50" height="50" relative="1" as="geometry">
            <mxPoint x="140" y="1010" as="sourcePoint" />
            <mxPoint x="200" y="980" as="targetPoint" />
          </mxGeometry>
        </mxCell>
        <mxCell id="4P1G4LsWBmaIqUn7CIRd-136" value="Drug_ID" style="ellipse;whiteSpace=wrap;html=1;fontFamily=Times New Roman;fontSize=18;" vertex="1" parent="1">
          <mxGeometry x="110" y="1000" width="90" height="50" as="geometry" />
        </mxCell>
        <mxCell id="4P1G4LsWBmaIqUn7CIRd-137" value="" style="endArrow=none;html=1;rounded=0;strokeWidth=3;fontFamily=Times New Roman;fontSize=18;exitX=0.75;exitY=1;exitDx=0;exitDy=0;" edge="1" parent="1" source="4P1G4LsWBmaIqUn7CIRd-130">
          <mxGeometry width="50" height="50" relative="1" as="geometry">
            <mxPoint x="240" y="1020" as="sourcePoint" />
            <mxPoint x="260" y="1000" as="targetPoint" />
          </mxGeometry>
        </mxCell>
        <mxCell id="4P1G4LsWBmaIqUn7CIRd-138" value="Number" style="ellipse;whiteSpace=wrap;html=1;fontFamily=Times New Roman;fontSize=18;" vertex="1" parent="1">
          <mxGeometry x="240" y="992.5" width="80" height="45" as="geometry" />
        </mxCell>
      </root>
    </mxGraphModel>
  </diagram>
</mxfile>
